<svg xmlns="http://www.w3.org/2000/svg" width="66.667" height="50" viewBox="0 0 66.667 50">
  <path id="envelope" d="M60.417,64H6.25A6.25,6.25,0,0,0,0,70.25v37.5A6.25,6.25,0,0,0,6.25,114H60.417a6.25,6.25,0,0,0,6.25-6.25V70.25A6.25,6.25,0,0,0,60.417,64Zm0,6.25v5.313c-2.92,2.377-7.574,6.074-17.524,13.866-2.193,1.725-6.537,5.869-9.559,5.82-3.022.049-7.367-4.1-9.559-5.82C13.826,81.639,9.17,77.941,6.25,75.563V70.25ZM6.25,107.75V83.583c2.984,2.376,7.215,5.711,13.664,10.761,2.846,2.24,7.83,7.186,13.42,7.156,5.562.03,10.483-4.844,13.418-7.155C53.2,89.3,57.433,85.96,60.417,83.583V107.75Z" transform="translate(0 -64)" fill="#d8b7d8" opacity="0.41"/>
</svg>
