<svg xmlns="http://www.w3.org/2000/svg" width="50" height="50" viewBox="0 0 50 50">
  <path id="facebook-square" d="M50,37.357V76.643A5.359,5.359,0,0,1,44.643,82h-9.52V62.223h6.763l.971-7.545H35.123V49.857c0-2.188.6-3.672,3.739-3.672h4V39.444a53.718,53.718,0,0,0-5.826-.3c-5.759,0-9.71,3.516-9.71,9.978V54.69H20.536v7.545h6.8V82H5.357A5.359,5.359,0,0,1,0,76.643V37.357A5.359,5.359,0,0,1,5.357,32H44.643A5.359,5.359,0,0,1,50,37.357Z" transform="translate(0 -32)" fill="#d8b7d8" opacity="0.413"/>
</svg>
