<svg xmlns="http://www.w3.org/2000/svg" width="50" height="50" viewBox="0 0 50 50">
  <path id="phone-square" d="M44.643,32H5.357A5.357,5.357,0,0,0,0,37.357V76.643A5.357,5.357,0,0,0,5.357,82H44.643A5.357,5.357,0,0,0,50,76.643V37.357A5.357,5.357,0,0,0,44.643,32ZM10.491,74.857a1.675,1.675,0,0,1-1.631-1.3L7.186,66.305a1.674,1.674,0,0,1,.972-1.915l7.812-3.348a1.674,1.674,0,0,1,1.955.479l3.459,4.228A25.874,25.874,0,0,0,33.749,53.385L29.52,49.925a1.674,1.674,0,0,1-.479-1.955l3.348-7.812a1.674,1.674,0,0,1,1.915-.972l7.254,1.674a1.674,1.674,0,0,1,1.3,1.631A32.365,32.365,0,0,1,10.491,74.857Z" transform="translate(0 -32)" fill="#d8b7d8" opacity="0.41"/>
</svg>
